<!DOCTYPE svg PUBLIC "-//W3C//DTD SVG 1.1//EN" "http://www.w3.org/Graphics/SVG/1.1/DTD/svg11.dtd">
<!-- Uploaded to: SVG Repo, www.svgrepo.com, Transformed by: SVG Repo Mixer Tools -->
<svg fill="#22c55e" height="800px" width="800px" version="1.1" id="Layer_1" xmlns="http://www.w3.org/2000/svg" xmlns:xlink="http://www.w3.org/1999/xlink" viewBox="0 0 512 512" xml:space="preserve">
<g id="SVGRepo_bgCarrier" stroke-width="0"/>
<g id="SVGRepo_tracerCarrier" stroke-linecap="round" stroke-linejoin="round"/>
<g id="SVGRepo_iconCarrier"> <g> <g> <g> <path d="M362.667,0c-75.584,0-138.091,56.512-147.84,129.472C207.317,128.576,199.744,128,192,128C86.144,128,0,214.123,0,320 c0,105.856,86.144,192,192,192c105.877,0,192-86.144,192-192c0-83.029-53.077-153.728-126.997-180.437 c5.013-54.187,50.197-96.896,105.664-96.896c58.816,0,106.667,47.851,106.667,106.667c0,11.776,9.557,21.333,21.333,21.333 c11.797,0,21.333-9.557,21.333-21.333C512,66.987,445.013,0,362.667,0z M282.517,229.483c8.341,8.341,8.341,21.824,0,30.165 l-17.28,17.28c3.989,6.72,7.061,13.995,9.067,21.739h24.363c11.797,0,21.333,9.536,21.333,21.333 c0,11.776-9.536,21.333-21.333,21.333h-24.363c-2.005,7.744-5.077,14.997-9.067,21.739l17.28,17.259 c8.341,8.341,8.341,21.845,0,30.165c-4.16,4.181-9.621,6.251-15.083,6.251c-5.461,0-10.923-2.069-15.083-6.251l-17.28-17.259 c-6.72,3.968-13.995,7.04-21.739,9.067v24.363c0,11.776-9.536,21.333-21.333,21.333c-11.776,0-21.333-9.557-21.333-21.333 v-24.363c-7.744-2.027-14.997-5.099-21.739-9.067l-17.259,17.259c-4.181,4.181-9.621,6.251-15.083,6.251 c-5.461,0-10.923-2.069-15.083-6.251c-8.341-8.32-8.341-21.824,0-30.165l17.259-17.259c-3.968-6.741-7.04-13.995-9.067-21.739 H85.333C73.557,341.333,64,331.776,64,320c0-11.797,9.557-21.333,21.333-21.333h24.363c2.027-7.744,5.099-15.019,9.067-21.739 l-17.259-17.28c-8.341-8.341-8.341-21.824,0-30.165c8.32-8.341,21.824-8.341,30.165,0l17.259,17.28 c6.741-3.989,13.995-7.061,21.739-9.067v-24.363c0-11.797,9.557-21.333,21.333-21.333c11.797,0,21.333,9.536,21.333,21.333 v24.363c7.744,2.005,15.019,5.077,21.739,9.067l17.28-17.28C260.693,221.141,274.176,221.141,282.517,229.483z"/> <path d="M192.006,277.327c-23.531,0-42.667,19.136-42.667,42.667c0,23.531,19.136,42.667,42.667,42.667 c23.531,0,42.667-19.136,42.667-42.667C234.673,296.463,215.537,277.327,192.006,277.327z"/> </g> </g> </g> </g>
</svg>